<svg width="17" height="17" viewBox="0 0 17 17" fill="none" xmlns="http://www.w3.org/2000/svg">
<path d="M7.34418 2.52428L7.82475 2.96194L7.82485 2.96183L7.34418 2.52428ZM8.26855 2.11572V2.76572V2.11572ZM9.19293 2.52428L8.71225 2.96183L8.71236 2.96194L9.19293 2.52428ZM9.83043 3.22428L9.34986 3.66194L9.3499 3.66199L9.83043 3.22428ZM10.8129 3.63115L10.7829 2.98185L10.7826 2.98186L10.8129 3.63115ZM11.7586 3.5874L11.7886 4.23671L11.7891 4.23668L11.7586 3.5874ZM13.0661 4.89365L13.7153 4.9241L13.7154 4.92362L13.0661 4.89365ZM13.0217 5.8399L12.3724 5.80945L12.3724 5.80953L13.0217 5.8399ZM13.4286 6.8224L12.9908 7.30293L12.9909 7.30297L13.4286 6.8224ZM14.1286 7.4599L13.6909 7.94047L13.691 7.94058L14.1286 7.4599ZM14.1286 9.30865L13.691 8.82798L13.6909 8.82808L14.1286 9.30865ZM13.4286 9.94615L12.9909 9.46558L12.9908 9.46563L13.4286 9.94615ZM13.0217 10.9287L13.671 10.8986L13.671 10.8983L13.0217 10.9287ZM13.0654 11.8743L12.4161 11.9043L12.4161 11.9049L13.0654 11.8743ZM11.7592 13.1818L11.7287 13.8311L11.7292 13.8311L11.7592 13.1818ZM10.8129 13.1374L10.8434 12.4881L10.8433 12.4881L10.8129 13.1374ZM9.83043 13.5443L9.3499 13.1066L9.34986 13.1066L9.83043 13.5443ZM9.19293 14.2443L8.71236 13.8066L8.71225 13.8067L9.19293 14.2443ZM7.34418 14.2443L7.82485 13.8067L7.82475 13.8066L7.34418 14.2443ZM6.70668 13.5443L7.18725 13.1066L7.18721 13.1066L6.70668 13.5443ZM5.72418 13.1374L5.75422 13.7867L5.75455 13.7867L5.72418 13.1374ZM4.77855 13.1812L4.74851 12.5318L4.74796 12.5319L4.77855 13.1812ZM3.47105 11.8749L2.82177 11.8445L2.82175 11.8449L3.47105 11.8749ZM3.51543 10.9287L4.16472 10.9591L4.16472 10.959L3.51543 10.9287ZM3.10855 9.94615L3.54627 9.46563L3.54622 9.46558L3.10855 9.94615ZM2.40855 9.30865L2.84622 8.82808L2.84611 8.82798L2.40855 9.30865ZM2 8.38428H2.65H2ZM2.40855 7.4599L2.84611 7.94058L2.84622 7.94047L2.40855 7.4599ZM3.10855 6.8224L3.54622 7.30297L3.54627 7.30293L3.10855 6.8224ZM3.51543 5.8399L2.86612 5.86994L2.86614 5.87028L3.51543 5.8399ZM3.47168 4.89428L4.12098 4.86424L4.12096 4.86369L3.47168 4.89428ZM4.77793 3.58678L4.80838 2.93749L4.8079 2.93747L4.77793 3.58678ZM5.72418 3.63115L5.69373 4.28044L5.69381 4.28044L5.72418 3.63115ZM6.70668 3.22428L7.18721 3.66199L7.18725 3.66194L6.70668 3.22428ZM6.85317 7.92466C6.59933 7.67082 6.18778 7.67082 5.93393 7.92466C5.68009 8.1785 5.68009 8.59006 5.93393 8.8439L6.85317 7.92466ZM7.64355 9.63428L7.18393 10.0939C7.43778 10.3477 7.84933 10.3477 8.10317 10.0939L7.64355 9.63428ZM10.6032 7.5939C10.857 7.34006 10.857 6.9285 10.6032 6.67466C10.3493 6.42082 9.93778 6.42082 9.68394 6.67466L10.6032 7.5939ZM7.82485 2.96183C7.88109 2.90006 7.9496 2.8507 8.026 2.81693L7.50047 1.62789C7.25852 1.73483 7.04157 1.89111 6.8635 2.08673L7.82485 2.96183ZM8.026 2.81693C8.10241 2.78317 8.18502 2.76572 8.26855 2.76572V1.46572C8.00403 1.46572 7.74242 1.52096 7.50047 1.62789L8.026 2.81693ZM8.26855 2.76572C8.35209 2.76572 8.4347 2.78317 8.51111 2.81693L9.03664 1.62789C8.79469 1.52096 8.53308 1.46572 8.26855 1.46572V2.76572ZM8.51111 2.81693C8.58751 2.8507 8.65602 2.90006 8.71225 2.96183L9.6736 2.08673C9.49554 1.89111 9.27858 1.73483 9.03664 1.62789L8.51111 2.81693ZM8.71236 2.96194L9.34986 3.66194L10.311 2.78661L9.6735 2.08661L8.71236 2.96194ZM9.3499 3.66199C9.53805 3.86854 9.76943 4.03105 10.0276 4.13795L10.525 2.93686C10.4434 2.90311 10.3704 2.85179 10.311 2.78656L9.3499 3.66199ZM10.0276 4.13795C10.2857 4.24484 10.5642 4.2935 10.8433 4.28044L10.7826 2.98186C10.6944 2.98598 10.6065 2.97062 10.525 2.93686L10.0276 4.13795ZM10.843 4.28046L11.7886 4.23671L11.7285 2.9381L10.7829 2.98185L10.843 4.28046ZM11.7891 4.23668C11.8726 4.23275 11.9559 4.24628 12.0337 4.27639L12.5025 3.06385C12.2559 2.9685 11.9921 2.92568 11.728 2.93812L11.7891 4.23668ZM12.0337 4.27639C12.1116 4.3065 12.1824 4.35253 12.2414 4.41155L13.1602 3.49187C12.9732 3.30499 12.7492 3.15921 12.5025 3.06385L12.0337 4.27639ZM12.2414 4.41155C12.3005 4.47057 12.3466 4.54126 12.3768 4.61912L13.5889 4.14917C13.4933 3.90263 13.3473 3.67875 13.1602 3.49187L12.2414 4.41155ZM12.3768 4.61912C12.407 4.69697 12.4206 4.78027 12.4167 4.86368L13.7154 4.92362C13.7276 4.65948 13.6845 4.3957 13.5889 4.14917L12.3768 4.61912ZM12.4168 4.8632L12.3724 5.80945L13.671 5.87035L13.7153 4.9241L12.4168 4.8632ZM12.3724 5.80953C12.3593 6.08861 12.408 6.36714 12.5149 6.62527L13.716 6.12788C13.6822 6.04636 13.6668 5.95841 13.671 5.87028L12.3724 5.80953ZM12.5149 6.62527C12.6218 6.88341 12.7843 7.11479 12.9908 7.30293L13.8663 6.34188C13.801 6.28246 13.7497 6.20939 13.716 6.12788L12.5149 6.62527ZM12.9909 7.30297L13.6909 7.94047L14.5662 6.97933L13.8662 6.34183L12.9909 7.30297ZM13.691 7.94058C13.7528 7.99681 13.8021 8.06532 13.8359 8.14172L15.0249 7.61619C14.918 7.37424 14.7617 7.15729 14.5661 6.97923L13.691 7.94058ZM13.8359 8.14172C13.8697 8.21812 13.8871 8.30074 13.8871 8.38428H15.1871C15.1871 8.11976 15.1319 7.85815 15.0249 7.61619L13.8359 8.14172ZM13.8871 8.38428C13.8871 8.46782 13.8697 8.55043 13.8359 8.62683L15.0249 9.15236C15.1319 8.91041 15.1871 8.6488 15.1871 8.38428H13.8871ZM13.8359 8.62683C13.8021 8.70323 13.7528 8.77174 13.691 8.82798L14.5661 9.78933C14.7617 9.61126 14.918 9.39431 15.0249 9.15236L13.8359 8.62683ZM13.6909 8.82808L12.9909 9.46558L13.8662 10.4267L14.5662 9.78922L13.6909 8.82808ZM12.9908 9.46563C12.7843 9.65377 12.6218 9.88515 12.5149 10.1433L13.716 10.6407C13.7497 10.5592 13.801 10.4861 13.8663 10.4267L12.9908 9.46563ZM12.5149 10.1433C12.408 10.4014 12.3593 10.6799 12.3724 10.959L13.671 10.8983C13.6668 10.8101 13.6822 10.7222 13.716 10.6407L12.5149 10.1433ZM12.3724 10.9587L12.4161 11.9043L13.7147 11.8442L13.671 10.8986L12.3724 10.9587ZM12.4161 11.9049C12.4201 11.9883 12.4066 12.0716 12.3764 12.1495L13.589 12.6183C13.6843 12.3716 13.7272 12.1078 13.7147 11.8437L12.4161 11.9049ZM12.3764 12.1495C12.3463 12.2274 12.3003 12.2981 12.2413 12.3572L13.161 13.276C13.3478 13.0889 13.4936 12.8649 13.589 12.6183L12.3764 12.1495ZM12.2413 12.3572C12.1823 12.4162 12.1116 12.4623 12.0337 12.4925L12.5037 13.7046C12.7502 13.609 12.9741 13.463 13.161 13.276L12.2413 12.3572ZM12.0337 12.4925C11.9559 12.5227 11.8726 12.5363 11.7891 12.5325L11.7292 13.8311C11.9934 13.8433 12.2571 13.8002 12.5037 13.7046L12.0337 12.4925ZM11.7896 12.5325L10.8434 12.4881L10.7825 13.7867L11.7287 13.8311L11.7896 12.5325ZM10.8433 12.4881C10.5642 12.4751 10.2857 12.5237 10.0276 12.6306L10.525 13.8317C10.6065 13.7979 10.6944 13.7826 10.7826 13.7867L10.8433 12.4881ZM10.0276 12.6306C9.76943 12.7375 9.53805 12.9 9.3499 13.1066L10.311 13.982C10.3704 13.9168 10.4434 13.8654 10.525 13.8317L10.0276 12.6306ZM9.34986 13.1066L8.71236 13.8066L9.6735 14.6819L10.311 13.9819L9.34986 13.1066ZM8.71225 13.8067C8.65602 13.8685 8.58751 13.9179 8.51111 13.9516L9.03664 15.1407C9.27859 15.0337 9.49554 14.8774 9.6736 14.6818L8.71225 13.8067ZM8.51111 13.9516C8.43471 13.9854 8.35209 14.0028 8.26855 14.0028V15.3028C8.53307 15.3028 8.79468 15.2476 9.03664 15.1407L8.51111 13.9516ZM8.26855 14.0028C8.18501 14.0028 8.1024 13.9854 8.026 13.9516L7.50047 15.1407C7.74242 15.2476 8.00403 15.3028 8.26855 15.3028V14.0028ZM8.026 13.9516C7.9496 13.9179 7.88109 13.8685 7.82485 13.8067L6.8635 14.6818C7.04157 14.8774 7.25852 15.0337 7.50047 15.1407L8.026 13.9516ZM7.82475 13.8066L7.18725 13.1066L6.22611 13.9819L6.86361 14.6819L7.82475 13.8066ZM7.18721 13.1066C6.99906 12.9 6.76768 12.7375 6.50955 12.6306L6.01216 13.8317C6.09367 13.8654 6.16674 13.9168 6.22615 13.982L7.18721 13.1066ZM6.50955 12.6306C6.25142 12.5237 5.97289 12.4751 5.69381 12.4881L5.75455 13.7867C5.84268 13.7826 5.93064 13.7979 6.01216 13.8317L6.50955 12.6306ZM5.69414 12.4881L4.74851 12.5318L4.80859 13.8305L5.75422 13.7867L5.69414 12.4881ZM4.74796 12.5319C4.66455 12.5358 4.58124 12.5223 4.50336 12.4922L4.03457 13.7047C4.2812 13.8001 4.54502 13.8429 4.80915 13.8304L4.74796 12.5319ZM4.50336 12.4922C4.42548 12.4621 4.35474 12.416 4.29566 12.357L3.37686 13.2767C3.56393 13.4636 3.78794 13.6093 4.03457 13.7047L4.50336 12.4922ZM4.29566 12.357C4.23659 12.298 4.19049 12.2273 4.1603 12.1494L2.94822 12.6194C3.04381 12.8659 3.1898 13.0898 3.37686 13.2767L4.29566 12.357ZM4.1603 12.1494C4.13012 12.0716 4.11651 11.9883 4.12036 11.9049L2.82175 11.8449C2.80955 12.1091 2.85263 12.3728 2.94822 12.6194L4.1603 12.1494ZM4.12034 11.9054L4.16472 10.9591L2.86614 10.8982L2.82177 11.8445L4.12034 11.9054ZM4.16472 10.959C4.17777 10.6799 4.12912 10.4014 4.02222 10.1433L2.82114 10.6407C2.8549 10.7222 2.87026 10.8101 2.86614 10.8983L4.16472 10.959ZM4.02222 10.1433C3.91533 9.88515 3.75281 9.65377 3.54627 9.46563L2.67084 10.4267C2.73606 10.4861 2.78738 10.5592 2.82114 10.6407L4.02222 10.1433ZM3.54622 9.46558L2.84622 8.82808L1.97089 9.78922L2.67089 10.4267L3.54622 9.46558ZM2.84611 8.82798C2.78433 8.77175 2.73498 8.70323 2.70121 8.62683L1.51217 9.15236C1.61911 9.39431 1.77539 9.61126 1.971 9.78933L2.84611 8.82798ZM2.70121 8.62683C2.66744 8.55043 2.65 8.46781 2.65 8.38428H1.35C1.35 8.6488 1.40524 8.91041 1.51217 9.15236L2.70121 8.62683ZM2.65 8.38428C2.65 8.30074 2.66744 8.21813 2.70121 8.14172L1.51217 7.61619C1.40524 7.85814 1.35 8.11975 1.35 8.38428H2.65ZM2.70121 8.14172C2.73498 8.06532 2.78433 7.99681 2.84611 7.94058L1.971 6.97923C1.77539 7.15729 1.61911 7.37425 1.51217 7.61619L2.70121 8.14172ZM2.84622 7.94047L3.54622 7.30297L2.67089 6.34183L1.97089 6.97933L2.84622 7.94047ZM3.54627 7.30293C3.75281 7.11479 3.91532 6.88341 4.02222 6.62527L2.82114 6.12788C2.78738 6.20939 2.73606 6.28246 2.67084 6.34188L3.54627 7.30293ZM4.02222 6.62527C4.12912 6.36714 4.17777 6.08861 4.16472 5.80953L2.86614 5.87028C2.87026 5.95841 2.8549 6.04636 2.82114 6.12788L4.02222 6.62527ZM4.16473 5.80986L4.12098 4.86424L2.82237 4.92432L2.86612 5.86994L4.16473 5.80986ZM4.12096 4.86369C4.11703 4.78028 4.13055 4.69697 4.16066 4.61908L2.94813 4.15029C2.85278 4.39692 2.80995 4.66074 2.8224 4.92487L4.12096 4.86369ZM4.16066 4.61908C4.19078 4.5412 4.23681 4.47046 4.29583 4.41139L3.37615 3.49259C3.18926 3.67965 3.04348 3.90366 2.94813 4.15029L4.16066 4.61908ZM4.29583 4.41139C4.35484 4.35231 4.42554 4.30621 4.50339 4.27602L4.03344 3.06394C3.78691 3.15953 3.56303 3.30552 3.37615 3.49259L4.29583 4.41139ZM4.50339 4.27602C4.58125 4.24584 4.66455 4.23224 4.74796 4.23609L4.8079 2.93747C4.54376 2.92528 4.27998 2.96835 4.03344 3.06394L4.50339 4.27602ZM4.74748 4.23606L5.69373 4.28044L5.75463 2.98187L4.80838 2.93749L4.74748 4.23606ZM5.69381 4.28044C5.97289 4.2935 6.25142 4.24484 6.50955 4.13795L6.01216 2.93686C5.93064 2.97062 5.84269 2.98598 5.75455 2.98186L5.69381 4.28044ZM6.50955 4.13795C6.76768 4.03105 6.99906 3.86854 7.18721 3.66199L6.22615 2.78656C6.16674 2.85179 6.09367 2.90311 6.01216 2.93686L6.50955 4.13795ZM7.18725 3.66194L7.82475 2.96194L6.86361 2.08661L6.22611 2.78661L7.18725 3.66194ZM5.93393 8.8439L7.18393 10.0939L8.10317 9.17466L6.85317 7.92466L5.93393 8.8439ZM8.10317 10.0939L10.6032 7.5939L9.68394 6.67466L7.18393 9.17466L8.10317 10.0939Z" fill="#1AAFDE"/>
</svg>
