<?xml version="1.0" encoding="iso-8859-1"?>
<!-- Generator: Adobe Illustrator 16.0.0, SVG Export Plug-In . SVG Version: 6.00 Build 0)  -->
<!DOCTYPE svg PUBLIC "-//W3C//DTD SVG 1.1//EN" "http://www.w3.org/Graphics/SVG/1.1/DTD/svg11.dtd">
<svg version="1.1" id="Capa_1" xmlns="http://www.w3.org/2000/svg" xmlns:xlink="http://www.w3.org/1999/xlink" x="0px" y="0px"
	 width="76.161px" height="76.161px" viewBox="0 0 76.161 76.161" style="enable-background:new 0 0 76.161 76.161;"
	 xml:space="preserve">
<g>
	<path d="M62.943,20.161H13.216v-7.393h49.728V20.161z M13.216,46.369h19.712V26.657H13.216V46.369z M13.216,57.792h26.88
		c-0.673-0.672-1.345-1.567-1.792-2.464H13.216V57.792z M13.216,51.969h23.52c-0.224-0.896-0.672-1.566-0.896-2.465H13.216V51.969z
		 M41.664,29.121c0.896-0.896,2.016-1.792,3.137-2.464h-6.497v2.464H41.664z M13.216,63.393h34.72
		c-1.567-0.672-2.912-1.567-4.479-2.465h-30.24V63.393z M75.936,49.504c-0.672,2.912-2.016,5.377-3.584,7.616l3.81,6.72V48.833
		C76.16,49.057,76.16,49.281,75.936,49.504z M63.393,72.801l-0.449-1.121H8.96c-2.464,0-4.48-2.016-4.48-4.479V8.96
		c0-2.464,2.016-4.479,4.48-4.479H67.2c2.464,0,4.479,2.017,4.479,4.479v21.728c0.896,0.896,1.566,2.019,2.238,3.139
		c1.12,1.792,1.792,3.584,2.24,5.603V8.96C76.16,4.033,72.128,0,67.2,0H8.96C4.032,0,0,4.033,0,8.96v58.24
		c0,4.928,4.032,8.96,8.96,8.96h56.448l-0.225-0.448L63.393,72.801z M40.768,52.865c-4.705-8.288-1.791-19.04,6.496-23.744
		c8.289-4.704,19.041-1.792,23.743,6.496c4.929,8.288,2.017,19.04-6.271,23.743C56.225,64.289,45.695,61.376,40.768,52.865z
		 M63.168,56.897c6.943-4.033,9.409-12.994,5.376-19.938c-4.032-6.942-12.991-9.405-19.937-5.376
		c-6.943,4.034-9.407,12.994-5.375,19.938C47.264,58.465,56.225,60.928,63.168,56.897z M68.993,58.079l-7.565,4.367l5.822,10.088
		l7.566-4.366L68.993,58.079z M68.096,73.92c1.121,2.016,3.811,2.688,5.824,1.568c2.016-1.12,2.688-3.809,1.568-5.824L68.096,73.92z
		"/>
</g>
<g>
</g>
<g>
</g>
<g>
</g>
<g>
</g>
<g>
</g>
<g>
</g>
<g>
</g>
<g>
</g>
<g>
</g>
<g>
</g>
<g>
</g>
<g>
</g>
<g>
</g>
<g>
</g>
<g>
</g>
</svg>
